<svg xmlns="http://www.w3.org/2000/svg" xmlns:xlink="http://www.w3.org/1999/xlink"><defs><symbol viewBox="0 0 16 16" id="add"><path fill-rule="evenodd" clip-rule="evenodd" d="M8 0a1 1 0 00-1 1v6H1a1 1 0 100 2h6v6a1 1 0 102 0V9h6a1 1 0 100-2H9V1a1 1 0 00-1-1z" /></symbol><symbol viewBox="0 0 13 13" id="delete"><path fill-rule="evenodd" clip-rule="evenodd" d="M.657.657a1 1 0 000 1.414l4.242 4.243-4.242 4.242a1 1 0 101.414 1.415l4.243-4.243 4.242 4.243a1 1 0 001.415-1.415L7.728 6.314 11.97 2.07A1 1 0 0010.556.657L6.314 4.9 2.07.657a1 1 0 00-1.414 0z" /></symbol><symbol viewBox="0 0 23 23" id="star"><path d="M11.303 23a3.5 3.5 0 00-.547-.608 4.595 4.595 0 00-.7-.578c-.222-.142-.394-.213-.516-.213h-.06l1.336-7.545-.607-.244-4.406 6.267c0-.06-.111-.111-.334-.152a5.459 5.459 0 00-.668-.152 3.722 3.722 0 00-.578-.06c-.223 0-.445.03-.668.09l-.304-.304a.815.815 0 00.06-.304v-.365c0-.284-.05-.619-.151-1.004-.101-.406-.172-.608-.213-.608l6.26-4.412-.274-.608-7.535 1.369.03-.092c0-.121-.091-.294-.273-.517a4.597 4.597 0 00-.578-.7c-.223-.243-.415-.415-.577-.517v-.425c.162-.122.354-.295.577-.518.223-.223.416-.456.578-.7.182-.243.273-.425.273-.547l-.03-.091 7.535 1.369.243-.64-6.26-4.38c.062 0 .132-.203.213-.609.102-.426.152-.8.152-1.125v-.305a.433.433 0 00-.06-.243l.303-.304c.223.06.446.091.669.091.162 0 .364-.02.608-.06.243-.041.465-.092.668-.153.223-.081.334-.142.334-.182l4.375 6.297.638-.274L9.48 1.4l.06.03c.122 0 .304-.08.547-.242.243-.183.476-.386.699-.609.243-.223.415-.416.517-.578h.425c.06.122.202.294.425.517.243.223.486.436.73.64.263.182.455.273.577.273l.09-.03-1.336 7.544.608.274 4.375-6.297c.04.08.243.172.608.273.384.082.719.122 1.002.122.243 0 .466-.03.669-.091l.303.304c-.02.061-.04.142-.06.243v.305c0 .162.01.385.03.669.04.264.091.507.152.73.06.223.122.335.182.335l-6.259 4.38.213.61 7.565-1.34v.092c0 .122.081.314.243.578.183.243.385.477.608.7.223.223.405.375.547.456v.426c-.142.081-.324.243-.547.487a9.666 9.666 0 00-.608.73c-.162.243-.243.426-.243.547v.092l-7.565-1.37-.243.61 6.259 4.41c-.04 0-.091.112-.152.335-.06.203-.111.436-.152.7a3.73 3.73 0 00-.06.578v.365l.06.304-.304.305a2.315 2.315 0 00-.668-.092c-.264 0-.598.051-1.003.152-.385.082-.577.152-.577.213l-4.406-6.267-.577.244 1.337 7.545h-.06c-.122 0-.315.09-.578.273-.243.183-.486.376-.73.578-.222.223-.374.406-.455.548h-.425z" /></symbol></defs></svg>